STARTFONT 2.1
FONT -DEC-David-Bold-O-Normal--14-140-75-75-P-77-ISO8859-8
SIZE 14 75 75
FONTBOUNDINGBOX 15 14 0 -3

STARTPROPERTIES 26
FONTNAME_REGISTRY ""
FAMILY_NAME "David"
FOUNDRY "DEC"
WEIGHT_NAME "Bold"
SETWIDTH_NAME "Normal"
SLANT "O"
ADD_STYLE_NAME ""
PIXEL_SIZE 14
RESOLUTION_X 75
RESOLUTION_Y 75
SPACING "P"
AVERAGE_WIDTH 77
CHARSET_REGISTRY "ISO8859"
CHARSET_ENCODING "8"
CHARSET_COLLECTIONS "ASCII ISO8859-8 "
FULL_NAME "David Bold Oblique"
COPYRIGHT "Digital Israel"
CAP_HEIGHT 10
X_HEIGHT 7
_DEC_DEVICE_FONTNAMES "PS=David-BoldOblique-ISOLatinHebrew"
QUAD_WIDTH 7
POINT_SIZE 140
WEIGHT 10
DEFAULT_CHAR 0
FONT_DESCENT 3
FONT_ASCENT 12
ENDPROPERTIES

CHARS 152

STARTCHAR space
ENCODING 32
SWIDTH 206 0
DWIDTH 3 0
BBX 1 1 0 0
BITMAP
00
ENDCHAR

STARTCHAR exclam
ENCODING 33
SWIDTH 480 0
DWIDTH 7 0
BBX 5 10 1 0
BITMAP
18
18
38
30
30
20
60
00
C0
C0
ENDCHAR

STARTCHAR quotedbl
ENCODING 34
SWIDTH 480 0
DWIDTH 7 0
BBX 6 4 2 6
BITMAP
6C
6C
D8
90
ENDCHAR

STARTCHAR numbersign
ENCODING 35
SWIDTH 549 0
DWIDTH 8 0
BBX 8 10 0 0
BITMAP
12
12
12
7F
24
24
FE
48
48
48
ENDCHAR

STARTCHAR dollar
ENCODING 36
SWIDTH 480 0
DWIDTH 7 0
BBX 7 12 0 -1
BITMAP
04
1C
2A
6A
78
38
1C
1C
AC
A8
70
40
ENDCHAR

STARTCHAR percent
ENCODING 37
SWIDTH 960 0
DWIDTH 14 0
BBX 12 10 1 0
BITMAP
38C0
6F80
CD00
CB00
DEE0
77B0
0D30
0B30
1360
31C0
ENDCHAR

STARTCHAR ampersand
ENCODING 38
SWIDTH 686 0
DWIDTH 10 0
BBX 10 10 0 0
BITMAP
0E00
1900
1900
1A00
1DC0
6C80
CF00
C640
EF80
7B80
ENDCHAR

STARTCHAR quoteright
ENCODING 39
SWIDTH 343 0
DWIDTH 5 0
BBX 3 4 2 6
BITMAP
60
60
20
C0
ENDCHAR

STARTCHAR parenleft
ENCODING 40
SWIDTH 411 0
DWIDTH 6 0
BBX 5 13 1 -3
BITMAP
18
30
30
60
60
60
C0
C0
C0
C0
C0
C0
60
ENDCHAR

STARTCHAR parenright
ENCODING 41
SWIDTH 411 0
DWIDTH 6 0
BBX 5 13 0 -3
BITMAP
30
18
18
18
18
18
18
30
30
30
60
60
C0
ENDCHAR

STARTCHAR asterisk
ENCODING 42
SWIDTH 480 0
DWIDTH 7 0
BBX 5 5 1 5
BITMAP
20
F8
70
F8
20
ENDCHAR

STARTCHAR plus
ENCODING 43
SWIDTH 617 0
DWIDTH 9 0
BBX 8 7 0 0
BITMAP
18
18
18
FF
18
18
18
ENDCHAR

STARTCHAR comma
ENCODING 44
SWIDTH 274 0
DWIDTH 4 0
BBX 3 4 0 -2
BITMAP
60
60
20
C0
ENDCHAR

STARTCHAR minus
ENCODING 45
SWIDTH 617 0
DWIDTH 9 0
BBX 7 1 1 3
BITMAP
FE
ENDCHAR

STARTCHAR period
ENCODING 46
SWIDTH 206 0
DWIDTH 3 0
BBX 2 2 0 0
BITMAP
C0
C0
ENDCHAR

STARTCHAR slash
ENCODING 47
SWIDTH 411 0
DWIDTH 6 0
BBX 4 10 1 0
BITMAP
10
10
30
20
20
40
40
C0
80
80
ENDCHAR

STARTCHAR zero
ENCODING 48
SWIDTH 480 0
DWIDTH 7 0
BBX 7 10 0 0
BITMAP
1C
36
66
66
46
C4
CC
CC
D8
70
ENDCHAR

STARTCHAR one
ENCODING 49
SWIDTH 480 0
DWIDTH 7 0
BBX 5 10 1 0
BITMAP
18
78
30
30
30
30
60
60
60
F0
ENDCHAR

STARTCHAR two
ENCODING 50
SWIDTH 480 0
DWIDTH 7 0
BBX 7 10 0 0
BITMAP
1C
3E
26
06
0C
18
30
64
FC
F8
ENDCHAR

STARTCHAR three
ENCODING 51
SWIDTH 480 0
DWIDTH 7 0
BBX 7 10 0 0
BITMAP
1C
2E
06
0C
38
1C
0C
CC
DC
78
ENDCHAR

STARTCHAR four
ENCODING 52
SWIDTH 480 0
DWIDTH 7 0
BBX 7 10 0 0
BITMAP
06
0E
16
2C
4C
FE
FE
18
30
30
ENDCHAR

STARTCHAR five
ENCODING 53
SWIDTH 480 0
DWIDTH 7 0
BBX 7 10 0 0
BITMAP
3E
3C
60
78
1C
0C
0C
0C
D8
F0
ENDCHAR

STARTCHAR six
ENCODING 54
SWIDTH 480 0
DWIDTH 7 0
BBX 7 10 0 0
BITMAP
0E
38
60
60
F8
CC
CC
CC
F8
70
ENDCHAR

STARTCHAR seven
ENCODING 55
SWIDTH 480 0
DWIDTH 7 0
BBX 7 10 1 0
BITMAP
7E
FE
8C
08
18
30
20
60
C0
C0
ENDCHAR

STARTCHAR eight
ENCODING 56
SWIDTH 480 0
DWIDTH 7 0
BBX 7 10 0 0
BITMAP
3C
76
66
34
38
68
CC
CC
D8
70
ENDCHAR

STARTCHAR nine
ENCODING 57
SWIDTH 480 0
DWIDTH 7 0
BBX 7 10 0 0
BITMAP
1C
36
66
66
66
3E
0C
0C
38
E0
ENDCHAR

STARTCHAR colon
ENCODING 58
SWIDTH 343 0
DWIDTH 5 0
BBX 3 7 1 0
BITMAP
60
60
00
00
00
C0
C0
ENDCHAR

STARTCHAR semicolon
ENCODING 59
SWIDTH 274 0
DWIDTH 4 0
BBX 4 9 0 -2
BITMAP
30
30
00
00
00
60
60
20
C0
ENDCHAR

STARTCHAR less
ENCODING 60
SWIDTH 549 0
DWIDTH 8 0
BBX 6 6 1 0
BITMAP
0C
30
C0
C0
30
0C
ENDCHAR

STARTCHAR equal
ENCODING 61
SWIDTH 686 0
DWIDTH 10 0
BBX 7 3 1 2
BITMAP
FE
00
FE
ENDCHAR

STARTCHAR greater
ENCODING 62
SWIDTH 549 0
DWIDTH 8 0
BBX 6 6 1 0
BITMAP
C0
30
0C
0C
30
C0
ENDCHAR

STARTCHAR question
ENCODING 63
SWIDTH 549 0
DWIDTH 8 0
BBX 6 10 2 0
BITMAP
78
9C
CC
18
30
60
40
00
C0
C0
ENDCHAR

STARTCHAR at
ENCODING 64
SWIDTH 1029 0
DWIDTH 15 0
BBX 12 12 1 -2
BITMAP
07C0
1C20
3010
6750
4C90
D910
D910
DB20
CEC0
6000
3040
0F80
ENDCHAR

STARTCHAR A
ENCODING 65
SWIDTH 617 0
DWIDTH 9 0
BBX 10 10 0 0
BITMAP
0180
0380
0380
0580
0D80
0980
1F80
2180
6180
F3C0
ENDCHAR

STARTCHAR B
ENCODING 66
SWIDTH 617 0
DWIDTH 9 0
BBX 10 10 0 0
BITMAP
3F80
18C0
18C0
3180
3F00
3380
7180
6180
6300
FE00
ENDCHAR

STARTCHAR C
ENCODING 67
SWIDTH 617 0
DWIDTH 9 0
BBX 9 10 1 0
BITMAP
1F80
3980
6100
6000
C000
C000
C000
C100
E600
7C00
ENDCHAR

STARTCHAR D
ENCODING 68
SWIDTH 686 0
DWIDTH 10 0
BBX 10 10 0 0
BITMAP
3F00
1980
18C0
30C0
30C0
30C0
6180
6180
6700
FC00
ENDCHAR

STARTCHAR E
ENCODING 69
SWIDTH 686 0
DWIDTH 10 0
BBX 10 10 0 0
BITMAP
3FC0
18C0
1800
3100
3F00
3200
7000
6000
6180
FF00
ENDCHAR

STARTCHAR F
ENCODING 70
SWIDTH 617 0
DWIDTH 9 0
BBX 10 10 0 0
BITMAP
3FC0
18C0
1800
3100
3F00
3200
7000
6000
6000
F000
ENDCHAR

STARTCHAR G
ENCODING 71
SWIDTH 686 0
DWIDTH 10 0
BBX 9 10 1 0
BITMAP
1F80
3980
6100
6000
C000
C780
C300
C300
E600
7E00
ENDCHAR

STARTCHAR H
ENCODING 72
SWIDTH 754 0
DWIDTH 11 0
BBX 12 10 0 0
BITMAP
3CF0
1860
1860
30C0
3FC0
30C0
6180
6180
6180
F3C0
ENDCHAR

STARTCHAR I
ENCODING 73
SWIDTH 343 0
DWIDTH 5 0
BBX 8 10 0 0
BITMAP
1F
0C
0C
18
18
18
30
30
30
F8
ENDCHAR

STARTCHAR J
ENCODING 74
SWIDTH 480 0
DWIDTH 7 0
BBX 8 11 0 -1
BITMAP
0F
06
06
0C
0C
0C
18
18
D8
F0
60
ENDCHAR

STARTCHAR K
ENCODING 75
SWIDTH 754 0
DWIDTH 11 0
BBX 11 10 0 0
BITMAP
3DE0
18C0
1900
3200
3400
3C00
3600
6300
6180
F3C0
ENDCHAR

STARTCHAR L
ENCODING 76
SWIDTH 617 0
DWIDTH 9 0
BBX 8 10 0 0
BITMAP
3C
18
18
30
30
30
60
61
63
FE
ENDCHAR

STARTCHAR M
ENCODING 77
SWIDTH 891 0
DWIDTH 13 0
BBX 15 10 0 0
BITMAP
1C0E
0C1C
1E2C
1658
1658
3698
2730
2730
6630
E678
ENDCHAR

STARTCHAR N
ENCODING 78
SWIDTH 754 0
DWIDTH 11 0
BBX 13 10 0 0
BITMAP
3C78
1C30
1C20
1660
3640
2640
23C0
6380
4180
E180
ENDCHAR

STARTCHAR O
ENCODING 79
SWIDTH 686 0
DWIDTH 10 0
BBX 9 10 1 0
BITMAP
1F00
3380
6180
6180
C180
C180
C300
C300
E600
7C00
ENDCHAR

STARTCHAR P
ENCODING 80
SWIDTH 617 0
DWIDTH 9 0
BBX 10 10 0 0
BITMAP
3F80
18C0
18C0
31C0
3F80
3000
3000
6000
6000
F000
ENDCHAR

STARTCHAR Q
ENCODING 81
SWIDTH 686 0
DWIDTH 10 0
BBX 10 13 0 -3
BITMAP
0F80
19C0
30C0
30C0
60C0
60C0
6180
6180
7300
3E00
3000
7C80
8F00
ENDCHAR

STARTCHAR R
ENCODING 82
SWIDTH 686 0
DWIDTH 10 0
BBX 10 10 0 0
BITMAP
3F80
18C0
18C0
31C0
3F80
3600
3300
6300
6180
F1C0
ENDCHAR

STARTCHAR S
ENCODING 83
SWIDTH 549 0
DWIDTH 8 0
BBX 9 10 0 0
BITMAP
1F80
3180
3100
3800
1C00
0E00
0600
8600
CE00
FC00
ENDCHAR

STARTCHAR T
ENCODING 84
SWIDTH 686 0
DWIDTH 10 0
BBX 10 10 2 0
BITMAP
FFC0
CCC0
8C80
1800
1800
1800
3000
3000
7000
F800
ENDCHAR

STARTCHAR U
ENCODING 85
SWIDTH 686 0
DWIDTH 10 0
BBX 11 10 1 0
BITMAP
7DE0
30C0
3080
7180
6100
6100
E300
C200
C600
7C00
ENDCHAR

STARTCHAR V
ENCODING 86
SWIDTH 686 0
DWIDTH 10 0
BBX 10 10 1 0
BITMAP
F3C0
6180
6300
6200
6600
6400
2C00
3800
3800
3000
ENDCHAR

STARTCHAR W
ENCODING 87
SWIDTH 891 0
DWIDTH 13 0
BBX 14 10 1 0
BITMAP
F7BC
6318
6310
6330
6720
6760
2940
39C0
3180
3180
ENDCHAR

STARTCHAR X
ENCODING 88
SWIDTH 617 0
DWIDTH 9 0
BBX 10 10 0 0
BITMAP
7BC0
3180
1B00
1E00
0C00
0C00
1E00
3600
6300
F780
ENDCHAR

STARTCHAR Y
ENCODING 89
SWIDTH 549 0
DWIDTH 8 0
BBX 10 10 0 0
BITMAP
F3C0
6180
3300
3600
1C00
1800
1800
3000
3000
7800
ENDCHAR

STARTCHAR Z
ENCODING 90
SWIDTH 549 0
DWIDTH 8 0
BBX 9 10 0 0
BITMAP
3F80
3380
2300
0600
0C00
1800
3000
6100
E300
FF00
ENDCHAR

STARTCHAR bracketleft
ENCODING 91
SWIDTH 411 0
DWIDTH 6 0
BBX 7 13 0 -3
BITMAP
1E
18
18
30
30
30
60
60
60
C0
C0
C0
F0
ENDCHAR

STARTCHAR backslash
ENCODING 92
SWIDTH 411 0
DWIDTH 6 0
BBX 4 10 1 0
BITMAP
80
80
C0
40
40
20
20
30
10
10
ENDCHAR

STARTCHAR bracketright
ENCODING 93
SWIDTH 343 0
DWIDTH 5 0
BBX 7 13 0 -3
BITMAP
1E
06
06
0C
0C
0C
18
18
18
30
30
30
F0
ENDCHAR

STARTCHAR asciicircum
ENCODING 94
SWIDTH 549 0
DWIDTH 8 0
BBX 6 6 1 4
BITMAP
18
38
6C
4C
CC
CC
ENDCHAR

STARTCHAR underscore
ENCODING 95
SWIDTH 480 0
DWIDTH 7 0
BBX 7 1 0 -2
BITMAP
FE
ENDCHAR

STARTCHAR quoteleft
ENCODING 96
SWIDTH 343 0
DWIDTH 5 0
BBX 3 4 2 6
BITMAP
60
80
C0
C0
ENDCHAR

STARTCHAR a
ENCODING 97
SWIDTH 549 0
DWIDTH 8 0
BBX 8 7 0 0
BITMAP
1A
76
66
CC
CC
FD
6E
ENDCHAR

STARTCHAR b
ENCODING 98
SWIDTH 480 0
DWIDTH 7 0
BBX 7 10 0 0
BITMAP
38
18
30
3C
76
66
66
CC
F8
60
ENDCHAR

STARTCHAR c
ENCODING 99
SWIDTH 411 0
DWIDTH 6 0
BBX 6 7 0 0
BITMAP
1C
74
60
C0
C0
E8
70
ENDCHAR

STARTCHAR d
ENCODING 100
SWIDTH 480 0
DWIDTH 7 0
BBX 8 10 0 0
BITMAP
07
03
06
36
6E
CC
CC
CC
F8
6C
ENDCHAR

STARTCHAR e
ENCODING 101
SWIDTH 480 0
DWIDTH 7 0
BBX 7 7 0 0
BITMAP
1C
76
66
F8
C0
EC
78
ENDCHAR

STARTCHAR f
ENCODING 102
SWIDTH 343 0
DWIDTH 5 0
BBX 9 13 0 -3
BITMAP
0380
0680
0600
1F00
0C00
0C00
1800
1800
1800
3000
3000
B000
E000
ENDCHAR

STARTCHAR g
ENCODING 103
SWIDTH 411 0
DWIDTH 6 0
BBX 8 10 0 -3
BITMAP
1F
36
66
66
3C
60
7C
CE
C6
7C
ENDCHAR

STARTCHAR h
ENCODING 104
SWIDTH 549 0
DWIDTH 8 0
BBX 8 10 0 0
BITMAP
38
18
30
36
3B
77
66
66
CC
CE
ENDCHAR

STARTCHAR i
ENCODING 105
SWIDTH 274 0
DWIDTH 4 0
BBX 5 10 0 0
BITMAP
18
18
00
70
30
60
60
C0
D0
E0
ENDCHAR

STARTCHAR j
ENCODING 106
SWIDTH 274 0
DWIDTH 4 0
BBX 7 13 0 -3
BITMAP
06
06
00
1C
0C
08
18
18
18
30
30
A0
E0
ENDCHAR

STARTCHAR k
ENCODING 107
SWIDTH 480 0
DWIDTH 7 0
BBX 8 10 0 0
BITMAP
38
18
30
33
36
6C
78
6C
CC
CE
ENDCHAR

STARTCHAR l
ENCODING 108
SWIDTH 274 0
DWIDTH 4 0
BBX 5 10 0 0
BITMAP
38
18
30
30
30
60
60
C0
D0
60
ENDCHAR

STARTCHAR m
ENCODING 109
SWIDTH 754 0
DWIDTH 11 0
BBX 11 7 0 0
BITMAP
76C0
3FE0
6660
6660
66C0
CCC0
CCE0
ENDCHAR

STARTCHAR n
ENCODING 110
SWIDTH 549 0
DWIDTH 8 0
BBX 8 7 0 0
BITMAP
76
3B
77
66
66
CC
CE
ENDCHAR

STARTCHAR o
ENCODING 111
SWIDTH 480 0
DWIDTH 7 0
BBX 7 7 0 0
BITMAP
1C
76
66
C6
CC
DC
70
ENDCHAR

STARTCHAR p
ENCODING 112
SWIDTH 480 0
DWIDTH 7 0
BBX 9 10 0 -3
BITMAP
3700
1D80
1980
1980
3300
3300
3C00
6000
6000
F000
ENDCHAR

STARTCHAR q
ENCODING 113
SWIDTH 480 0
DWIDTH 7 0
BBX 7 10 0 -3
BITMAP
1E
36
66
6C
CC
DC
78
18
30
78
ENDCHAR

STARTCHAR r
ENCODING 114
SWIDTH 411 0
DWIDTH 6 0
BBX 7 7 0 0
BITMAP
6C
3E
74
60
60
C0
C0
ENDCHAR

STARTCHAR s
ENCODING 115
SWIDTH 411 0
DWIDTH 6 0
BBX 6 7 0 0
BITMAP
3C
6C
60
30
18
D8
F0
ENDCHAR

STARTCHAR t
ENCODING 116
SWIDTH 274 0
DWIDTH 4 0
BBX 6 9 0 0
BITMAP
10
30
7C
20
60
60
C0
D0
E0
ENDCHAR

STARTCHAR u
ENCODING 117
SWIDTH 480 0
DWIDTH 7 0
BBX 7 7 0 0
BITMAP
F6
66
6C
CC
C8
FA
6C
ENDCHAR

STARTCHAR v
ENCODING 118
SWIDTH 411 0
DWIDTH 6 0
BBX 7 7 0 0
BITMAP
EE
66
64
6C
68
70
40
ENDCHAR

STARTCHAR w
ENCODING 119
SWIDTH 617 0
DWIDTH 9 0
BBX 10 7 0 0
BITMAP
E5C0
6480
6D80
6D00
7E00
6C00
4800
ENDCHAR

STARTCHAR x
ENCODING 120
SWIDTH 411 0
DWIDTH 6 0
BBX 8 7 0 0
BITMAP
77
32
1C
18
2C
66
EE
ENDCHAR

STARTCHAR y
ENCODING 121
SWIDTH 411 0
DWIDTH 6 0
BBX 7 9 0 -2
BITMAP
76
32
36
34
3C
18
18
D0
E0
ENDCHAR

STARTCHAR z
ENCODING 122
SWIDTH 411 0
DWIDTH 6 0
BBX 6 7 0 0
BITMAP
7C
6C
58
30
60
E4
BC
ENDCHAR

STARTCHAR braceleft
ENCODING 123
SWIDTH 480 0
DWIDTH 7 0
BBX 8 13 0 -3
BITMAP
07
0C
18
18
18
30
C0
60
60
60
C0
C0
70
ENDCHAR

STARTCHAR bar
ENCODING 124
SWIDTH 274 0
DWIDTH 4 0
BBX 1 10 2 0
BITMAP
80
80
80
80
80
80
80
80
80
80
ENDCHAR

STARTCHAR braceright
ENCODING 125
SWIDTH 480 0
DWIDTH 7 0
BBX 8 13 0 -3
BITMAP
0E
03
03
06
06
06
03
0C
18
18
18
30
E0
ENDCHAR

STARTCHAR asciitilde
ENCODING 126
SWIDTH 686 0
DWIDTH 10 0
BBX 8 2 1 3
BITMAP
79
9E
ENDCHAR

STARTCHAR cent
ENCODING 162
SWIDTH 480 0
DWIDTH 7 0
BBX 7 9 0 -1
BITMAP
04
3C
6A
C8
D0
D0
E4
78
40
ENDCHAR

STARTCHAR sterling
ENCODING 163
SWIDTH 480 0
DWIDTH 7 0
BBX 7 10 0 0
BITMAP
0C
16
36
30
7C
30
30
60
BA
DC
ENDCHAR

STARTCHAR currency
ENCODING 164
SWIDTH 549 0
DWIDTH 8 0
BBX 6 6 1 2
BITMAP
CC
FC
48
48
FC
CC
ENDCHAR

STARTCHAR yen
ENCODING 165
SWIDTH 480 0
DWIDTH 7 0
BBX 8 10 0 0
BITMAP
F7
62
34
34
18
7C
10
7C
30
78
ENDCHAR

STARTCHAR brokenbar
ENCODING 166
SWIDTH 274 0
DWIDTH 4 0
BBX 1 10 2 0
BITMAP
80
80
80
80
00
00
80
80
80
80
ENDCHAR

STARTCHAR section
ENCODING 167
SWIDTH 549 0
DWIDTH 8 0
BBX 8 13 0 -3
BITMAP
1E
33
33
18
2C
66
66
66
34
18
CC
CC
78
ENDCHAR

STARTCHAR dieresis
ENCODING 168
SWIDTH 411 0
DWIDTH 6 0
BBX 4 2 2 8
BITMAP
90
90
ENDCHAR

STARTCHAR copyright
ENCODING 169
SWIDTH 823 0
DWIDTH 12 0
BBX 10 10 1 0
BITMAP
1E00
6180
4E80
9240
9040
9040
9240
4C80
6180
1E00
ENDCHAR

STARTCHAR multiply
ENCODING 170
SWIDTH 617 0
DWIDTH 9 0
BBX 8 7 0 0
BITMAP
C3
66
3C
18
3C
66
C3
ENDCHAR

STARTCHAR guillemotleft
ENCODING 171
SWIDTH 549 0
DWIDTH 8 0
BBX 7 5 1 1
BITMAP
36
6C
D8
D8
6C
ENDCHAR

STARTCHAR logicalnot
ENCODING 172
SWIDTH 617 0
DWIDTH 9 0
BBX 7 4 1 1
BITMAP
FE
02
02
02
ENDCHAR

STARTCHAR hyphen
ENCODING 173
SWIDTH 411 0
DWIDTH 6 0
BBX 4 2 1 2
BITMAP
F0
F0
ENDCHAR

STARTCHAR registered
ENCODING 174
SWIDTH 823 0
DWIDTH 12 0
BBX 10 10 1 0
BITMAP
1E00
6180
5C80
9240
9240
9C40
9440
5280
6180
1E00
ENDCHAR

STARTCHAR macron
ENCODING 175
SWIDTH 411 0
DWIDTH 6 0
BBX 4 1 2 8
BITMAP
F0
ENDCHAR

STARTCHAR degree
ENCODING 176
SWIDTH 411 0
DWIDTH 6 0
BBX 4 4 2 6
BITMAP
60
90
90
60
ENDCHAR

STARTCHAR plusminus
ENCODING 177
SWIDTH 617 0
DWIDTH 9 0
BBX 8 9 0 0
BITMAP
18
18
18
FF
18
18
18
00
FF
ENDCHAR

STARTCHAR twosuperior
ENCODING 178
SWIDTH 274 0
DWIDTH 4 0
BBX 5 6 0 4
BITMAP
30
58
18
30
60
F0
ENDCHAR

STARTCHAR threesuperior
ENCODING 179
SWIDTH 274 0
DWIDTH 4 0
BBX 5 6 0 4
BITMAP
70
18
30
18
B0
E0
ENDCHAR

STARTCHAR acute
ENCODING 180
SWIDTH 411 0
DWIDTH 6 0
BBX 4 3 2 7
BITMAP
30
60
80
ENDCHAR

STARTCHAR mu
ENCODING 181
SWIDTH 480 0
DWIDTH 7 0
BBX 8 10 0 -3
BITMAP
7B
33
36
66
64
7D
76
C0
80
C0
ENDCHAR

STARTCHAR paragraph
ENCODING 182
SWIDTH 549 0
DWIDTH 8 0
BBX 8 13 1 -3
BITMAP
3F
7A
FA
FA
F4
F4
74
28
28
28
50
50
50
ENDCHAR

STARTCHAR periodcentered
ENCODING 183
SWIDTH 274 0
DWIDTH 4 0
BBX 2 2 1 3
BITMAP
C0
C0
ENDCHAR

STARTCHAR cedilla
ENCODING 184
SWIDTH 343 0
DWIDTH 5 0
BBX 5 3 0 -3
BITMAP
10
98
70
ENDCHAR

STARTCHAR onesuperior
ENCODING 185
SWIDTH 274 0
DWIDTH 4 0
BBX 3 6 1 4
BITMAP
20
E0
60
40
40
E0
ENDCHAR

STARTCHAR divide
ENCODING 186
SWIDTH 617 0
DWIDTH 9 0
BBX 8 7 0 0
BITMAP
18
18
00
FF
00
18
18
ENDCHAR

STARTCHAR guillemotright
ENCODING 187
SWIDTH 549 0
DWIDTH 8 0
BBX 7 5 0 1
BITMAP
6C
36
36
6C
D8
ENDCHAR

STARTCHAR onequarter
ENCODING 188
SWIDTH 686 0
DWIDTH 10 0
BBX 8 10 1 0
BITMAP
22
E6
64
4C
49
F3
37
2A
7F
46
ENDCHAR

STARTCHAR onehalf
ENCODING 189
SWIDTH 686 0
DWIDTH 10 0
BBX 9 10 1 0
BITMAP
2200
E600
6400
4C00
4B00
F580
3180
2300
6600
4F00
ENDCHAR

STARTCHAR threequarters
ENCODING 190
SWIDTH 686 0
DWIDTH 10 0
BBX 9 10 0 0
BITMAP
7100
1B00
3200
1E00
B480
E980
1B80
1500
3F80
2300
ENDCHAR

STARTCHAR dblunderscore
ENCODING 223
SWIDTH 480 0
DWIDTH 7 0
BBX 7 7 0 -3
BITMAP
00
00
FE
00
00
FE
00
ENDCHAR

STARTCHAR aleph
ENCODING 224
SWIDTH 480 0
DWIDTH 7 0
BBX 7 9 0 0
BITMAP
24
36
32
76
5C
D8
88
EC
EC
ENDCHAR

STARTCHAR beth
ENCODING 225
SWIDTH 480 0
DWIDTH 7 0
BBX 7 9 0 0
BITMAP
10
3E
3E
06
04
04
08
FC
FC
ENDCHAR

STARTCHAR gimmel
ENCODING 226
SWIDTH 411 0
DWIDTH 6 0
BBX 6 9 0 0
BITMAP
08
1C
0C
0C
0C
08
18
68
E8
ENDCHAR

STARTCHAR daleth
ENCODING 227
SWIDTH 549 0
DWIDTH 8 0
BBX 7 9 1 0
BITMAP
24
7E
7E
08
08
10
10
20
20
ENDCHAR

STARTCHAR he
ENCODING 228
SWIDTH 480 0
DWIDTH 7 0
BBX 7 9 0 0
BITMAP
10
3E
3E
06
06
44
CC
88
88
ENDCHAR

STARTCHAR waw
ENCODING 229
SWIDTH 274 0
DWIDTH 4 0
BBX 4 9 0 0
BITMAP
20
70
30
10
30
20
60
40
40
ENDCHAR

STARTCHAR zayin
ENCODING 230
SWIDTH 411 0
DWIDTH 6 0
BBX 5 9 1 0
BITMAP
60
F8
38
20
40
40
40
C0
80
ENDCHAR

STARTCHAR het
ENCODING 231
SWIDTH 549 0
DWIDTH 8 0
BBX 8 9 0 0
BITMAP
10
3E
7F
23
63
42
C6
84
84
ENDCHAR

STARTCHAR teth
ENCODING 232
SWIDTH 549 0
DWIDTH 8 0
BBX 8 9 0 0
BITMAP
42
4F
5F
43
43
42
46
7C
70
ENDCHAR

STARTCHAR yod
ENCODING 233
SWIDTH 343 0
DWIDTH 5 0
BBX 4 6 1 3
BITMAP
60
70
30
20
60
40
ENDCHAR

STARTCHAR kaphfinal
ENCODING 234
SWIDTH 411 0
DWIDTH 6 0
BBX 6 11 0 -2
BITMAP
40
FC
FC
08
08
10
10
10
20
20
20
ENDCHAR

STARTCHAR kaph
ENCODING 235
SWIDTH 480 0
DWIDTH 7 0
BBX 7 9 0 0
BITMAP
10
3C
3E
02
06
04
0C
F8
E0
ENDCHAR

STARTCHAR lamed
ENCODING 236
SWIDTH 480 0
DWIDTH 7 0
BBX 6 11 1 0
BITMAP
80
80
80
FC
FC
0C
08
08
30
E0
C0
ENDCHAR

STARTCHAR memfinal
ENCODING 237
SWIDTH 549 0
DWIDTH 8 0
BBX 8 9 0 0
BITMAP
10
3E
7F
23
43
42
86
FC
FC
ENDCHAR

STARTCHAR mem
ENCODING 238
SWIDTH 617 0
DWIDTH 9 0
BBX 9 9 0 0
BITMAP
3000
3300
3F80
1980
3080
6180
4100
CF00
9E00
ENDCHAR

STARTCHAR nunfinal
ENCODING 239
SWIDTH 274 0
DWIDTH 4 0
BBX 4 12 0 -3
BITMAP
20
70
30
10
30
20
20
60
40
40
40
40
ENDCHAR

STARTCHAR nun
ENCODING 240
SWIDTH 343 0
DWIDTH 5 0
BBX 5 9 0 0
BITMAP
10
38
18
08
08
18
10
F0
E0
ENDCHAR

STARTCHAR samekh
ENCODING 241
SWIDTH 617 0
DWIDTH 9 0
BBX 8 9 1 0
BITMAP
20
7E
FF
43
43
42
46
7C
78
ENDCHAR

STARTCHAR ayin
ENCODING 242
SWIDTH 480 0
DWIDTH 7 0
BBX 7 10 0 -1
BITMAP
22
66
66
26
26
24
2C
38
F0
C0
ENDCHAR

STARTCHAR pefinal
ENCODING 243
SWIDTH 480 0
DWIDTH 7 0
BBX 7 12 0 -3
BITMAP
18
3C
6E
C6
82
C6
E4
44
0C
08
08
08
ENDCHAR

STARTCHAR pe
ENCODING 244
SWIDTH 480 0
DWIDTH 7 0
BBX 7 9 0 0
BITMAP
18
3C
6E
46
62
64
04
7C
F8
ENDCHAR

STARTCHAR zadikfinal
ENCODING 245
SWIDTH 411 0
DWIDTH 6 0
BBX 6 12 0 -3
BITMAP
C4
CC
C4
CC
58
70
60
60
40
C0
C0
80
ENDCHAR

STARTCHAR zadik
ENCODING 246
SWIDTH 480 0
DWIDTH 7 0
BBX 7 9 0 0
BITMAP
22
66
32
36
14
18
08
F8
F8
ENDCHAR

STARTCHAR kof
ENCODING 247
SWIDTH 549 0
DWIDTH 8 0
BBX 8 12 0 -3
BITMAP
10
3F
3F
01
23
22
26
5C
78
80
80
80
ENDCHAR

STARTCHAR resh
ENCODING 248
SWIDTH 411 0
DWIDTH 6 0
BBX 6 9 0 0
BITMAP
20
7C
7C
04
0C
08
18
10
10
ENDCHAR

STARTCHAR shin
ENCODING 249
SWIDTH 686 0
DWIDTH 10 0
BBX 9 9 1 0
BITMAP
9100
5B80
5980
5980
7100
6300
4600
7C00
7800
ENDCHAR

STARTCHAR taf
ENCODING 250
SWIDTH 549 0
DWIDTH 8 0
BBX 8 9 0 0
BITMAP
20
7E
7F
23
23
22
26
E4
C4
ENDCHAR
ENDFONT
